<?xml version="1.0" encoding="utf-8"?>
<!-- Generator: Adobe Illustrator 25.0.1, SVG Export Plug-In . SVG Version: 6.00 Build 0)  -->
<svg version="1.1" id="Layer_1" xmlns="http://www.w3.org/2000/svg" xmlns:xlink="http://www.w3.org/1999/xlink" x="0px" y="0px"
	 viewBox="0 0 590 402" style="enable-background:new 0 0 590 402;" xml:space="preserve">
<style type="text/css">
	.st0{fill:#1B1B1C;}
	.st1{clip-path:url(#SVGID_2_);}
	.st2{fill:none;stroke:#5B5B5B;stroke-miterlimit:10;}
	.st3{fill:#F9FAF5;}
	.st4{fill:#F8F9F4;}
	.st5{clip-path:url(#SVGID_4_);}
	.st6{fill:none;stroke:#FFFFFF;stroke-miterlimit:10;}
	.st7{clip-path:url(#SVGID_6_);}
	.st8{clip-path:url(#SVGID_8_);}
	.st9{clip-path:url(#SVGID_10_);}
	.st10{clip-path:url(#SVGID_12_);}
	.st11{clip-path:url(#SVGID_14_);}
	.st12{clip-path:url(#SVGID_16_);}
	.st13{clip-path:url(#SVGID_18_);}
	.st14{clip-path:url(#SVGID_20_);}
	.st15{clip-path:url(#SVGID_22_);}
	.st16{fill:#C2AA90;}
	.st17{clip-path:url(#SVGID_24_);}
	.st18{clip-path:url(#SVGID_26_);}
	.st19{clip-path:url(#SVGID_28_);}
	.st20{clip-path:url(#SVGID_30_);}
	.st21{clip-path:url(#SVGID_32_);}
	.st22{clip-path:url(#SVGID_34_);}
	.st23{clip-path:url(#SVGID_36_);}
	.st24{clip-path:url(#SVGID_38_);}
	.st25{fill:none;stroke:#FFFFFF;stroke-width:0.25;stroke-miterlimit:10;}
	.st26{fill:none;stroke:#3A3A3A;stroke-miterlimit:10;}
	.st27{fill:#FFFFFF;}
	.st28{fill:none;stroke:#FAFBF6;stroke-miterlimit:10;}
	.st29{fill:#5B5B5B;}
	.st30{clip-path:url(#SVGID_40_);}
	.st31{clip-path:url(#SVGID_42_);}
	.st32{fill:#FFA7DB;}
	.st33{fill:none;stroke:#C2AA90;stroke-miterlimit:10;}
	.st34{fill:none;stroke:#C2AA90;stroke-linejoin:bevel;stroke-miterlimit:10;}
	.st35{clip-path:url(#SVGID_44_);}
	.st36{clip-path:url(#SVGID_46_);}
	.st37{clip-path:url(#SVGID_48_);}
	.st38{clip-path:url(#SVGID_50_);}
	.st39{clip-path:url(#SVGID_52_);}
	.st40{clip-path:url(#SVGID_54_);}
	.st41{clip-path:url(#SVGID_56_);}
	.st42{clip-path:url(#SVGID_58_);}
	.st43{clip-path:url(#SVGID_60_);}
	.st44{fill:none;stroke:#C2AA90;stroke-width:2;stroke-miterlimit:10;}
	.st45{clip-path:url(#SVGID_62_);}
	.st46{clip-path:url(#SVGID_64_);}
	.st47{clip-path:url(#SVGID_66_);}
	.st48{clip-path:url(#SVGID_68_);}
	.st49{clip-path:url(#SVGID_70_);}
	.st50{clip-path:url(#SVGID_72_);}
	.st51{clip-path:url(#SVGID_74_);}
	.st52{clip-path:url(#SVGID_76_);}
	.st53{clip-path:url(#SVGID_78_);}
	.st54{clip-path:url(#SVGID_80_);}
	.st55{clip-path:url(#SVGID_82_);}
	.st56{clip-path:url(#SVGID_84_);}
	.st57{clip-path:url(#SVGID_86_);}
	.st58{clip-path:url(#SVGID_88_);}
	.st59{clip-path:url(#SVGID_90_);}
	.st60{clip-path:url(#SVGID_92_);}
	.st61{clip-path:url(#SVGID_94_);}
	.st62{clip-path:url(#SVGID_96_);}
	.st63{clip-path:url(#SVGID_98_);}
	.st64{clip-path:url(#SVGID_100_);}
	.st65{clip-path:url(#SVGID_102_);}
	.st66{clip-path:url(#SVGID_104_);}
	.st67{fill:#FFFFFF;stroke:#000000;stroke-miterlimit:10;}
</style>
<rect x="-67.41" y="-2.66" class="st0" width="724.81" height="407.32"/>
<g>
	<defs>
		<rect id="SVGID_41_" x="-67.41" y="-2.66" width="724.81" height="407.32"/>
	</defs>
	<clipPath id="SVGID_2_">
		<use xlink:href="#SVGID_41_"  style="overflow:visible;"/>
	</clipPath>
	<g class="st1">
		<g>
			<path class="st2" d="M-8.69-125.48c0.43,79.08-13.23,157.33-13.36,236.5c-0.11,65.27-1.18,130.53-1.39,195.79
				c-0.22,67.11,26.12,130.34,27.14,197.15C4.8,576.89-9.05,648.79-8.69,721.65"/>
			<path class="st2" d="M5.47-125.48C4.97-45.21-13.71,33.36-13.98,113.8c-0.22,65.65-2.46,131.31-1.91,196.96
				c0.57,68,35.94,129.03,38.99,196.46c3.26,72.03-17.22,142.51-17.63,214.42"/>
			<path class="st2" d="M19.63-125.48C18.01-43.87-5.93,34.92-6.35,116.79C-6.7,182.8-10.27,249-8.81,315
				c1.53,69.18,46.24,127.47,51.67,195.73c5.63,70.82-21.92,140.24-23.22,210.92"/>
			<path class="st2" d="M33.79-125.48C30.99-42.47,1.76,36.43,1.16,119.84c-0.47,66.33-5.42,133.18-3.01,199.47
				C0.71,389.9,54.74,445.09,62.7,514.29c7.98,69.35-26.7,138.15-28.91,207.35"/>
			<path class="st2" d="M47.95-125.48C44.02-41.08,9.65,37.84,8.89,122.78c-0.59,66.6-6.85,134.17-3.56,200.7
				c3.58,72.15,66.61,124.04,77.04,194.27c10.07,67.81-31.4,136.24-34.42,203.9"/>
			<path class="st2" d="M62.11-125.48C57.25-39.77,18.06,39.07,17.16,125.47c-0.7,66.83-8.09,135.11-4.06,201.83
				c4.45,73.77,75.92,122.32,88.53,193.6c5.65,31.96-5.82,66.45-15.58,96.52c-11.23,34.6-21.92,67.61-23.94,104.22"/>
			<path class="st2" d="M76.28-125.48C70.79-38.59,27.32,40.04,26.3,127.76c-0.78,67.05-9.01,135.89-4.52,202.81
				c5.07,75.36,84.16,120.66,98.41,193.03c6.24,31.67-6.51,66.08-17.31,95.4c-12.53,34.02-24.36,66.1-26.61,102.65"/>
			<path class="st2" d="M90.44-125.48C84.81-37.62,37.73,40.68,36.64,129.49c-0.82,67.28-9.5,136.43-4.89,203.57
				c5.28,76.87,90.98,119.11,106.08,192.58c6.5,31.61-7.01,65.76-18.71,94.56c-13.64,33.57-26.38,64.83-28.68,101.44"/>
			<path class="st2" d="M104.6-125.48c-5.16,88.55-55,166.43-56.09,255.99c-0.82,67.52-9.44,136.65-5.17,204.06
				c4.95,78.22,96.05,117.71,110.92,192.3c6.34,31.82-7.24,65.48-19.69,94.09c-14.5,33.29-27.89,63.89-29.97,100.69"/>
			<path class="st2" d="M118.76-125.48C114.58-36.67,63.2,40.83,62.11,130.68c-0.82,67.69-8.99,136.62-5.26,204.23
				c4.35,78.98,98.22,116.89,112.23,192.17c5.96,32.05-7.28,65.35-20.05,94.05c-14.79,33.24-28.37,63.6-30.26,100.52"/>
			<path class="st2" d="M132.92-125.48c-3.79,88.77-56.14,165.76-57.32,255.6c-0.89,67.7-8.74,136.84-4.87,204.45
				c4.49,78.47,96.79,116.89,111.05,191.68c6.06,31.8-7.37,65.62-19.47,94.37c-14.07,33.42-27.15,64.34-29.38,101.03"/>
			<path class="st2" d="M147.08-125.48c-2.04,48.88-21.02,93.61-36.91,139.26C96.72,52.42,88.92,88.08,88.41,128.95
				c-0.84,67.82-8.06,137.12-4.16,204.84c4.48,77.74,94.69,116.61,108.79,190.76c6.02,31.68-7.05,66-18.3,95.06
				c-13.08,33.79-25.36,65.47-27.66,102.04"/>
			<path class="st2" d="M161.25-125.48c-2.13,48.72-21.69,92.97-38.12,138.22c-13.95,38.42-22.03,73.74-22.45,114.58
				c-0.7,68.02-7.04,137.46-3.2,205.38c4.35,76.83,92.05,116.1,105.65,189.47c5.88,31.69-6.42,66.47-16.63,96.03
				c-11.85,34.32-23.1,66.88-25.25,103.45"/>
			<path class="st2" d="M175.41-125.48c-2.31,48.52-22.55,92.19-39.58,136.96c-14.5,38.12-23.01,73.06-23.3,113.84
				c-0.48,68.29-5.76,137.84-2.04,206.02c4.13,75.78,88.98,115.42,101.85,187.91c5.65,31.84-5.56,67.03-14.61,97.24
				c-10.46,34.94-20.49,68.48-22.32,105.17"/>
			<path class="st2" d="M189.57-125.48c-2.56,48.29-23.53,91.33-41.22,135.55c-15.11,37.77-24.12,72.29-24.26,113
				c-0.22,68.59-4.29,138.25-0.76,206.74c3.85,74.62,85.63,114.64,97.6,186.17c5.37,32.09-4.5,67.67-12.33,98.59
				c-9.02,35.61-17.63,70.2-19.04,107.09"/>
			<path class="st2" d="M203.73-125.48c-5.16,87.35-68.3,157.11-68.22,246.16c0.06,68.91-2.72,138.67,0.6,207.49
				c3.54,73.37,81.88,113.88,93.11,184.33c5.17,32.39-3.4,68.39-9.93,100.02c-7.49,36.32-14.65,71.92-15.57,109.12"/>
			<path class="st2" d="M217.89-125.48c-5.69,86.99-71.43,154.89-70.97,243.77c0.36,69.23-1.14,139.1,1.96,208.26
				c3.24,72.14,78.33,113.06,88.6,182.48c10.25,69.3-18.79,142.97-19.59,212.62"/>
			<path class="st2" d="M232.05-125.48C225.88-38.82,157.64,27.26,158.44,116c0.63,69.53,0.37,139.52,3.27,208.99
				c2.96,70.92,74.68,112.35,84.27,180.71c9.88,70.34-13.96,145.19-13.93,215.95"/>
			<path class="st2" d="M246.22-125.48c-6.54,86.39-77.09,150.76-76,239.41c0.86,69.79,1.73,139.91,4.47,209.65
				c2.74,69.79,71.36,111.72,80.35,179.1c9.51,71.34-9.48,147.17-8.81,218.97"/>
			<path class="st2" d="M260.38-125.48c-6.74,86.21-79.3,149.05-78,237.68c1.03,70.01,2.84,140.25,5.48,210.21
				c2.6,68.8,68.51,111.22,77.04,177.74c4.38,34.13,0.32,70.88-1.34,105.12c-1.87,38.8-3.73,77.52-3.18,116.38"/>
			<path class="st2" d="M274.54-125.48c-6.72,86.15-80.89,147.7-79.49,236.39c1.1,70.16,3.6,140.53,6.25,210.64
				c2.57,68,66.27,110.89,74.55,176.73c4.33,34.41,0.77,71.29-0.03,105.88c-0.91,39.17-1.82,78.31-1.28,117.49"/>
			<path class="st2" d="M288.7-125.48c-6.41,86.23-81.68,146.84-80.33,235.68c1.07,70.24,3.95,140.72,6.72,210.9
				c2.67,67.45,64.82,110.77,73.1,176.13c4.37,34.53,0.89,71.53,0.69,106.29c-0.22,39.38-0.45,78.75-0.19,118.13"/>
			<path class="st2" d="M302.86-125.48c-3.17,47.47-28.99,86.44-50.89,127.34c-19.13,35.73-30.2,67.61-29.95,108.27
				c0.43,70.13,4.82,140.72,7.6,210.8c2.65,66.99,63.57,111.25,72.31,176.18c4.64,34.44,0.93,71.58,0.93,106.31
				c0,39.41,0,78.83,0,118.24"/>
			<path class="st2" d="M317.03-125.48c-2.97,47.65-29.37,86.51-51.64,127.3c-19.48,35.68-30.58,67.52-30.52,108.3
				c0.12,69.89,8.84,140.14,11.48,210c2.51,66.37,60.67,112.57,69.6,177.02c4.77,34.42,1.07,71.55,1.07,106.26
				c0,39.41,0,78.83,0,118.24"/>
			<path class="st2" d="M331.19-125.48c-2.97,47.86-30.14,86.59-52.92,127.25c-19.88,35.47-31.64,67.38-31.2,108.26
				c0.76,69.72,15.4,138.9,18.03,208.67c2.48,65.79,56.45,114.32,65.01,178.45c4.6,34.51,1.08,71.48,1.08,106.26
				c0,39.41,0,78.83,0,118.24"/>
			<path class="st2" d="M345.35-125.48c-5.7,87.46-89.41,144.79-86.6,235.34c2.16,69.67,23.97,137.02,26.7,206.91
				c2.55,65.3,51.18,116.39,58.91,180.35c4.19,34.68,0.99,71.38,0.99,106.29c0,39.41,0,78.83,0,118.24"/>
			<path class="st2" d="M359.51-125.48c-6.21,87.7-94.88,144.08-89.47,235.12c4.14,69.72,34.02,134.61,36.93,204.82
				c2.69,64.91,45.11,118.68,51.71,182.61c3.6,34.89,0.83,71.29,0.83,106.34c0,39.41,0,78.83,0,118.24"/>
			<path class="st2" d="M373.67-125.48c-6.85,87.6-101.11,143.72-92.59,234.86c6.53,69.83,45.03,131.8,48.2,202.54
				c2.89,64.62,38.43,121.12,43.78,185.09c6.18,73.87,0.61,150.52,0.61,224.64"/>
			<path class="st2" d="M387.83-125.48C380.31-38.4,280.15,18.37,292.01,109.1c9.14,69.93,56.47,128.74,59.95,200.15
				c3.13,64.44,31.68,123.59,35.5,187.68c4.43,74.38,0.37,150.21,0.37,224.72"/>
			<path class="st2" d="M401.99-125.48c-8.14,86.21-114.14,144.43-99.04,234.31c11.76,70.02,67.83,125.58,71.63,197.77
				c3.39,64.36,24.95,126.03,27.27,190.25c2.7,74.72,0.14,150.02,0.14,224.79"/>
			<path class="st2" d="M416.16-125.48c-8.65,85.17-120.09,145.27-102.11,234.06c14.2,70.12,78.58,122.46,82.7,195.52
				c3.63,64.38,18.49,128.29,19.48,192.69c1.14,74.91-0.07,149.94-0.07,224.85"/>
			<path class="st2" d="M430.32-125.48c-5.3,49.7-39.84,87.36-67.73,126.62c-22.37,31.48-46.47,66.94-37.17,107.23
				c16.23,70.3,88.24,119.51,92.63,193.51c3.82,64.52,12.62,130.24,12.49,194.87c-0.14,74.97-0.22,149.93-0.22,224.9"/>
			<path class="st2" d="M444.48-125.48C439.03-75.55,403.57-38,375.12,1.06C352.51,32.11,327.15,68,337.2,108.21
				c17.67,70.65,96.29,116.82,100.85,191.83c8.52,140.24,6.43,281.13,6.43,421.6"/>
			<path class="st2" d="M458.64-125.48c-5.41,50.15-41.66,87.6-70.53,126.5c-22.85,30.79-48.91,66.87-38.57,107.12
				c18.3,71.28,102.23,114.49,106.82,190.62c3.93,65.22,3.38,132.61,2.53,197.98c-0.98,74.95-0.25,149.95-0.25,224.91"/>
			<path class="st2" d="M472.8-125.48c-5.14,50.32-42,87.71-71.14,126.47c-23.12,30.76-49.14,66.71-39.11,107.17
				c17.91,72.24,105.57,112.65,110.01,189.96c3.77,65.68,0.6,132.86,0.31,198.66c-0.33,74.95-0.07,149.91-0.07,224.86"/>
			<path class="st2" d="M486.97-125.48c-5.97,49.96-41.58,87.41-70.29,126.44c-22.56,30.68-48.93,67.15-38.74,107.19
				c18.28,71.82,103.82,113.16,108.86,189.94c4.31,65.64,0.16,132.93,0.16,198.73c0,74.94,0,149.89,0,224.83"/>
			<path class="st2" d="M501.13-125.48c-6.48,49.25-39.71,86.9-67.21,126.35c-21.53,30.89-47.13,67.74-37.04,107.14
				c18.13,70.85,98.67,114.64,104.04,190.08c4.67,65.54,0.21,133,0.21,198.72c0,74.94,0,149.89,0,224.83"/>
			<path class="st2" d="M515.29-125.48c-6.27,48.39-36.64,86.32-62.35,126.21c-20.25,31.42-43.8,68.22-34.36,107.06
				c16.99,69.94,91.34,116.33,96.5,190.3c4.57,65.57,0.21,132.98,0.21,198.72c0,74.94,0,149.89,0,224.83"/>
			<path class="st2" d="M529.45-125.48c-5.52,47.42-32.67,85.72-56.09,126.03c-18.68,32.16-39.29,68.62-30.91,106.96
				c15.09,69.06,82.27,118.19,86.81,190.58c4.12,65.7,0.19,132.88,0.19,198.72c0,74.94,0,149.89,0,224.83"/>
			<path class="st2" d="M543.61-125.48c-7.63,80.37-91.03,150.24-75.72,232.67c12.67,68.19,71.92,120.12,75.57,190.9
				c3.39,65.87,0.15,132.76,0.15,198.73c0,74.94,0,149.89,0,224.83"/>
			<path class="st2" d="M557.77-125.48c-5.51,80.51-75.59,150.18-63.45,232.31c9.96,67.32,60.74,122.04,63.36,191.25
				c5.32,140.74,0.09,282.73,0.09,423.56"/>
			<path class="st2" d="M571.94-125.48c-3.21,80.24-59.59,150.53-50.79,231.95c7.18,66.49,49.2,123.86,50.76,191.62
				c3.25,141.02,0.03,282.51,0.03,423.56"/>
			<path class="st2" d="M586.1-125.48c-0.99,79.47-43.9,151.33-38.34,231.59c4.55,65.73,37.79,125.47,38.38,191.98
				c1.24,141.16-0.03,282.4-0.03,423.57"/>
			<path class="st2" d="M600.26-125.48c0.85,78.38-29.42,152.4-26.7,231.25c2.25,65.11,27,126.78,26.78,192.31
				c-0.48,141.19-0.08,282.38-0.08,423.57"/>
		</g>
	</g>
</g>
<g>
	<g>
		<path class="st16" d="M182.54,175.26c1.74,2.3,3.11,5.02,4.11,8.17c1,3.15,1.7,6.32,2.11,9.51c0.41,3.19,0.61,5.71,0.61,7.56
			v28.58h-10.34V200.5c0-1.85-0.07-3.63-0.22-5.34c-0.15-1.7-0.37-3.35-0.67-4.95c-0.3-1.59-0.65-3.11-1.06-4.56
			c-0.41-1.45-0.87-2.8-1.39-4.06c-0.67,1.41-1.24,2.99-1.72,4.73c-0.48,1.74-0.87,3.47-1.17,5.17h-10.34v37.59h-12.34
			c0.44-0.44,0.76-0.95,0.95-1.5c0.18-0.56,0.28-1.13,0.28-1.72v-80.51h11.12v44.93c0.3-1.41,0.78-3.17,1.45-5.28
			c0.67-2.11,1.52-4.13,2.56-6.06c1.04-1.93,2.3-3.6,3.78-5c1.48-1.41,3.19-2.11,5.12-2.11h0.56
			C178.59,171.81,180.8,172.96,182.54,175.26z"/>
		<path class="st16" d="M249.66,224.74c0,0.82,0.11,1.6,0.33,2.34c0.22,0.74,0.59,1.41,1.11,2h-12.57v-4
			c-0.67,0.67-1.35,1.22-2.06,1.67c-0.71,0.44-1.45,0.85-2.22,1.22c-0.78,0.37-1.58,0.65-2.39,0.83c-0.82,0.19-1.63,0.28-2.45,0.28
			h-11.23c-2.6,0-5.02-0.74-7.28-2.22c-2.26-1.48-4.25-3.52-5.95-6.12c-1.71-2.59-3.06-5.63-4.06-9.12c-1-3.48-1.5-7.19-1.5-11.12
			c0-2.74,0.35-5.76,1.06-9.06c0.7-3.3,1.82-6.41,3.34-9.34c1.52-2.93,3.46-5.37,5.84-7.34c2.37-1.96,5.23-2.95,8.56-2.95h2.67
			c2.37,0,4.54,0.59,6.51,1.78c1.96,1.19,3.69,2.69,5.17,4.5c1.48,1.82,2.72,3.84,3.73,6.06c1,2.22,1.76,4.34,2.28,6.34v-17.68
			h11.12V224.74z M238.54,191.49h-11.12c-0.67-3.04-1.72-5.88-3.17-8.51c-1.45-2.63-3.02-4.8-4.73-6.51
			c-1.33,1.26-2.54,2.74-3.61,4.45c-1.08,1.71-2.02,3.6-2.84,5.67c-0.82,2.08-1.45,4.28-1.89,6.62c-0.44,2.34-0.67,4.76-0.67,7.28
			c0,3.34,0.39,6.51,1.17,9.51c0.78,3,1.83,5.69,3.17,8.06c1.33,2.37,2.89,4.41,4.67,6.12c1.78,1.71,3.71,2.93,5.78,3.67
			c1.56-0.59,3.02-1.43,4.39-2.5c1.37-1.07,2.63-2.37,3.78-3.89c1.15-1.52,2.15-3.24,3-5.17c0.85-1.93,1.54-4.04,2.06-6.34V191.49z"
			/>
		<path class="st16" d="M296.47,171.81v4.67c-1.71,1.71-3.24,3.88-4.62,6.51c-1.37,2.63-2.39,5.47-3.06,8.51h-11.12v37.59h-12.57
			c0.52-0.59,0.89-1.26,1.11-2c0.22-0.74,0.33-1.52,0.33-2.34v-51.93h11.12v17.68c0.52-2,1.26-4.11,2.22-6.34
			c0.96-2.22,2.19-4.24,3.67-6.06c1.48-1.82,3.19-3.32,5.12-4.5c1.93-1.19,4.08-1.78,6.45-1.78H296.47z"/>
		<path class="st16" d="M316.82,172.81v18.35c0.67-2.59,1.65-4.99,2.95-7.17c1.3-2.19,2.82-4.1,4.56-5.73
			c1.74-1.63,3.63-2.91,5.67-3.84c2.04-0.93,4.17-1.46,6.39-1.61h11.23c2.89,0.15,5.6,1,8.12,2.56c2.52,1.56,4.71,3.6,6.56,6.12
			c1.85,2.52,3.34,5.47,4.45,8.84c1.11,3.37,1.67,6.95,1.67,10.73c0,3.93-0.57,7.6-1.72,11.01c-1.15,3.41-2.71,6.39-4.67,8.95
			c-1.97,2.56-4.25,4.58-6.84,6.06c-2.6,1.48-5.38,2.22-8.34,2.22h-11.34c-2.45-0.07-4.6-0.24-6.45-0.5
			c-1.85-0.26-3.87-0.7-6.06-1.33c-2.19-0.63-4.24-1.54-6.17-2.72v31.92h-12.46c0.44-0.44,0.78-0.96,1-1.56
			c0.22-0.59,0.33-1.19,0.33-1.78v-80.51H316.82z M316.82,191.49v19.02c0.81,3.19,1.98,5.8,3.5,7.84c1.52,2.04,3.74,4,6.67,5.89
			c2.93,1.89,6.84,3.13,11.73,3.73c2.59-0.52,5.02-1.54,7.28-3.06c2.26-1.52,4.21-3.45,5.84-5.78c1.63-2.34,2.91-5.04,3.84-8.12
			c0.93-3.08,1.39-6.39,1.39-9.95c0-3.11-0.37-6.1-1.11-8.95c-0.74-2.85-1.78-5.45-3.11-7.78c-1.33-2.34-2.93-4.37-4.78-6.12
			c-1.85-1.74-3.86-3.06-6.01-3.95c-3.26,1.33-6.12,3.5-8.56,6.51c-2.45,3-4.23,6.58-5.34,10.73H316.82z"/>
		<path class="st16" d="M439.93,225.74c0,0.67,0.11,1.28,0.33,1.84c0.22,0.56,0.52,1.06,0.89,1.5h-12.34v-4.56
			c-1.93,1.19-4,2.1-6.23,2.72c-2.22,0.63-4.26,1.08-6.12,1.33c-1.85,0.26-3.97,0.43-6.34,0.5H398.9c-2.97,0-5.77-0.74-8.4-2.22
			c-2.63-1.48-4.93-3.48-6.89-6.01c-1.97-2.52-3.5-5.49-4.62-8.9c-1.11-3.41-1.67-7.08-1.67-11.01c0-3.78,0.54-7.34,1.61-10.68
			c1.07-3.34,2.54-6.28,4.39-8.84c1.85-2.56,4.04-4.6,6.56-6.12c2.52-1.52,5.23-2.35,8.12-2.5h11.23c2.22,0.15,4.35,0.69,6.39,1.61
			c2.04,0.93,3.91,2.21,5.62,3.84c1.7,1.63,3.21,3.52,4.5,5.67c1.3,2.15,2.32,4.52,3.06,7.12v-18.24h11.12V225.74z M428.81,191.49
			h-11.34c-1.11-4.15-2.89-7.75-5.34-10.79c-2.45-3.04-5.3-5.23-8.56-6.56c-2.15,0.89-4.15,2.19-6.01,3.89
			c-1.85,1.71-3.45,3.74-4.78,6.12c-1.33,2.37-2.39,4.99-3.17,7.84c-0.78,2.85-1.17,5.84-1.17,8.95c0,3.56,0.48,6.86,1.45,9.9
			c0.96,3.04,2.26,5.73,3.89,8.06c1.63,2.34,3.58,4.28,5.84,5.84c2.26,1.56,4.69,2.56,7.28,3c4-0.67,7.38-1.96,10.12-3.89
			c2.74-1.93,5-3.89,6.78-5.89c1.78-2,3.45-4.56,5-7.67V191.49z"/>
	</g>
</g>
</svg>
